# xmcd
#
# Track frame offsets:
#	150
#	16944
#	41629
#	55846
#	73272
#	89987
#	108209
#	129150
#	143808
#	156769
#	169397
#	182578
#
# Disc length: 2655 seconds
#
# Revision: 1
# Processed by: cddbd v1.5.2PL0 Copyright (c) Steve Scherf et al.
# Submitted via: EasyCDDAExtractor 12.0.1.1
#
DISCID=a50a5d0c
DTITLE=Patty Loveless - Dreamin' My Dreams
DYEAR=2005
DGENRE=Country
TTITLE0=Keep Your Distance
TTITLE1=Old Soul
TTITLE2=When Being Who You Are Is Not Enough
TTITLE3=Nobody Here By That Name
TTITLE4=Same Kind Of Crazy
TTITLE5=Everything But The Words
TTITLE6=Dreaming My Dreams With You
TTITLE7=On The Verge Of Tears
TTITLE8=Never Ending Song Of Love
TTITLE9=Big Chance
TTITLE10=My Old Friend The Blues
TTITLE11=When I Reach The Place I'm Going
EXTD=
EXTT0=
EXTT1=
EXTT2=
EXTT3=
EXTT4=
EXTT5=
EXTT6=
EXTT7=
EXTT8=
EXTT9=
EXTT10=
EXTT11=
PLAYORDER=
